<svg xmlns="http://www.w3.org/2000/svg" viewBox="0 0 19.234 18.736">
  <defs>
    <style>
      .cls-1 {
        fill: #2c3948;
      }
    </style>
  </defs>
  <g id="Groupe_135" data-name="Groupe 135" transform="translate(0 0)">
    <path id="Tracé_3" data-name="Tracé 3" class="cls-1" d="M19.018,2.294h0A.866.866,0,0,0,18.367,2H4.046L3.711.659A.869.869,0,0,0,2.868,0h-2a.868.868,0,0,0,0,1.735H2.191l.324,1.293,0,.008.99,7.936a.067.067,0,0,1,0,.019v0a.125.125,0,0,1,0,.024l.5,2.994a.864.864,0,0,0,.856.725h11.5a.868.868,0,0,0,0-1.735H5.6l-.211-1.263H17.366a.871.871,0,0,0,.862-.76l1-8A.862.862,0,0,0,19.018,2.294ZM16.6,10H5.134L4.351,3.737H17.383Z"/>
    <path id="Tracé_4" data-name="Tracé 4" class="cls-1" d="M231.2,198.5l.783,6.265Z" transform="translate(-226.849 -194.764)"/>
    <path id="Tracé_5" data-name="Tracé 5" class="cls-1" d="M718.668,850.2a1.368,1.368,0,1,0,1.368,1.368A1.369,1.369,0,0,0,718.668,850.2Z" transform="translate(-703.801 -834.2)"/>
    <path id="Tracé_6" data-name="Tracé 6" class="cls-1" d="M267.068,850.2a1.368,1.368,0,1,0,1.368,1.368A1.369,1.369,0,0,0,267.068,850.2Z" transform="translate(-260.7 -834.2)"/>
  </g>
</svg>
