<?xml version="1.0" encoding="utf-8"?>
<!-- Generator: Adobe Illustrator 22.1.0, SVG Export Plug-In . SVG Version: 6.00 Build 0)  -->
<svg version="1.1" id="Calque_1" xmlns="http://www.w3.org/2000/svg" xmlns:xlink="http://www.w3.org/1999/xlink" x="0px" y="0px"
	 viewBox="0 0 282.7 282.7" style="enable-background:new 0 0 282.7 282.7;" xml:space="preserve">
<style type="text/css">
	.st0{fill:#FFFFFF;stroke:#FFFFFF;stroke-width:8;stroke-miterlimit:10;}
</style>
<g>
	<g>
		<g>
			<path class="st0" d="M151.6,245.7v14.9c12.7-1.1,24.9-4.1,36.6-9c14.4-6.1,27.2-14.8,38.3-25.8c11.1-11.1,19.7-23.9,25.8-38.3
				c6.3-14.9,9.5-30.7,9.5-46.9c0-16.3-3.2-32-9.5-46.9c-6.1-14.4-14.8-27.2-25.8-38.3c-11.1-11.1-23.9-19.7-38.3-25.8
				c-14.9-6.3-30.7-9.5-46.9-9.5c-16.3,0-32,3.2-46.9,9.5c-14.4,6.1-27.3,14.8-38.3,25.8C45.1,66.5,36.4,79.4,30.4,93.7
				c-4.9,11.7-8,24-9,36.6h14.9c1-10.6,3.7-21,7.8-30.8c5.3-12.6,13-23.9,22.7-33.6c9.7-9.7,21-17.3,33.6-22.6
				c13-5.5,26.8-8.3,41.1-8.3s28.1,2.8,41.1,8.3c12.6,5.3,23.9,13,33.6,22.7c9.7,9.7,17.3,21,22.6,33.6c5.5,13,8.3,26.8,8.3,41.1
				c0,14.2-2.8,28.1-8.3,41.1c-5.3,12.6-13,23.9-22.7,33.6c-9.7,9.7-21,17.3-33.6,22.6C172.6,242.1,162.2,244.7,151.6,245.7z"/>
		</g>
	</g>
</g>
</svg>
