<?xml version="1.0" encoding="utf-8"?>
<!-- Generator: Adobe Illustrator 22.1.0, SVG Export Plug-In . SVG Version: 6.00 Build 0)  -->
<svg version="1.1" id="Calque_1" xmlns="http://www.w3.org/2000/svg" xmlns:xlink="http://www.w3.org/1999/xlink" x="0px" y="0px"
	 viewBox="0 0 1417.3 1417.3" style="enable-background:new 0 0 1417.3 1417.3;" xml:space="preserve">
<style type="text/css">
	.st0{fill:#FFFFFF;stroke:#FFFFFF;stroke-width:40;stroke-miterlimit:10;}
</style>
<g>
	<g>
		<g>
			<path class="st0" d="M761.7,1261.4v78.3c66.5-5.6,131.1-21.5,192.5-47.5c75.5-32,143.2-77.6,201.3-135.7
				c58.2-58.2,103.8-125.9,135.6-201.2c33.1-78.3,49.8-161.2,49.8-246.5c0-85.5-16.8-168.4-49.8-246.4
				c-32-75.5-77.6-143.2-135.7-201.3c-58.2-58.2-125.9-103.8-201.2-135.6C875.9,92.4,793,75.6,707.7,75.6
				c-85.5,0-168.4,16.8-246.4,49.8C385.7,157.4,318,203,260,261.1C201.8,319.3,156.1,387,124.3,462.3c-26,61.3-41.9,126-47.5,192.5
				h78.3c5.4-55.9,19.2-110.4,41.1-162.1c28.1-66.3,68.1-125.7,119.1-176.6c51.1-51.1,110.5-91.1,176.5-119
				c68.4-28.9,141.1-43.6,216.1-43.6s147.7,14.7,216.1,43.6c66.3,28.1,125.7,68.1,176.6,119.1c51.1,51.1,91.1,110.5,119,176.5
				c28.9,68.4,43.6,141.1,43.6,216.1c0,74.9-14.7,147.6-43.6,216.1c-28.1,66.3-68.1,125.7-119.1,176.6
				c-51.1,51.1-110.5,91.1-176.5,119C871.9,1242.3,817.4,1256,761.7,1261.4z"/>
		</g>
	</g>
</g>
</svg>
