<?xml version="1.0" encoding="utf-8"?>
<!-- Generator: Adobe Illustrator 22.1.0, SVG Export Plug-In . SVG Version: 6.00 Build 0)  -->
<svg version="1.1" id="Calque_1" xmlns="http://www.w3.org/2000/svg" xmlns:xlink="http://www.w3.org/1999/xlink" x="0px" y="0px"
	 viewBox="0 0 17.7 17.7" style="enable-background:new 0 0 17.7 17.7;" xml:space="preserve">
<style type="text/css">
	.st0{fill:#FFFFFF;}
</style>
<g id="picto_recherche" transform="translate(-286 2)">
	<path id="Tracé_44" class="st0" d="M286,5.4c0,4.1,3.3,7.4,7.4,7.4c1.7,0,3.3-0.6,4.7-1.6l4.2,4.2c0.3,0.3,0.8,0.3,1.2,0
		c0.3-0.3,0.3-0.8,0-1.1l-4.2-4.2c2.6-3.2,2-7.9-1.2-10.5c-3.2-2.6-7.9-2-10.5,1.2C286.6,2.1,286,3.8,286,5.4z M293.4,11.3
		c-3.2,0-5.8-2.6-5.8-5.8s2.6-5.8,5.8-5.8c3.2,0,5.8,2.6,5.8,5.8v0C299.2,8.6,296.7,11.2,293.4,11.3z"/>
</g>
</svg>
