<svg id="logo" xmlns="http://www.w3.org/2000/svg" viewBox="0 0 138.389 21.444">
  <defs>
    <style>
      .cls-1 {
        fill: #2c3948;
      }
    </style>
  </defs>
  <g id="Groupe_213" data-name="Groupe 213">
    <path id="Tracé_34" data-name="Tracé 34" class="cls-1" d="M14.558,71.375A9.294,9.294,0,0,1,9.351,72.8a9.862,9.862,0,0,1-4.972-1.207A8.008,8.008,0,0,1,1.13,68.136a13.148,13.148,0,0,1,0-10.673,8.057,8.057,0,0,1,3.235-3.457A9.751,9.751,0,0,1,9.3,52.8a9.813,9.813,0,0,1,5.133,1.264,6.512,6.512,0,0,1,2.894,3.765l-3.678,1.559a4.521,4.521,0,0,0-1.472-2.5,4.345,4.345,0,0,0-2.706-.764A4.692,4.692,0,0,0,5.6,57.859,7.708,7.708,0,0,0,4.2,62.8a7.892,7.892,0,0,0,1.352,4.942A4.565,4.565,0,0,0,9.379,69.48a4.206,4.206,0,0,0,4.47-3.44l3.735,1.117A7.4,7.4,0,0,1,14.558,71.375Z" transform="translate(0 -51.358)"/>
    <path id="Tracé_35" data-name="Tracé 35" class="cls-1" d="M742.875,234.377H732.464a3.433,3.433,0,0,0,3.678,3.118,4.164,4.164,0,0,0,2.089-.47,2.508,2.508,0,0,0,1.147-1.354l3.3,1.207a5.2,5.2,0,0,1-2.367,2.692,8.468,8.468,0,0,1-4.161.926,6.974,6.974,0,0,1-7.645-7.648,7.786,7.786,0,0,1,1.941-5.633,7.243,7.243,0,0,1,5.472-2.015,6.832,6.832,0,0,1,5.25,1.971A7.93,7.93,0,0,1,743,232.79,11.486,11.486,0,0,1,742.875,234.377Zm-9.338-5.354a4.258,4.258,0,0,0-1.1,2.528h6.853a4.276,4.276,0,0,0-1.117-2.515,3.126,3.126,0,0,0-2.294-.868A3.206,3.206,0,0,0,733.537,229.023Z" transform="translate(-708.609 -219.051)"/>
    <path id="Tracé_36" data-name="Tracé 36" class="cls-1" d="M1395.706,226.582a5.22,5.22,0,0,1,1.455,3.97V240.2h-4.03v-8.47q0-3.354-2.618-3.353a3.241,3.241,0,0,0-2.4,1,4.2,4.2,0,0,0-.986,3.058V240.2h-4.03V225.492h3.618l.117,2.618a5.077,5.077,0,0,1,2.029-2.176,5.98,5.98,0,0,1,3-.734A5.343,5.343,0,0,1,1395.706,226.582Z" transform="translate(-1345.336 -219.051)"/>
    <path id="Tracé_37" data-name="Tracé 37" class="cls-1" d="M2001.318,89.4a5.27,5.27,0,0,1-1.78.882,7.754,7.754,0,0,1-2.25.322q-4.911,0-4.912-4.442V78.6H1989.7v-3h2.676V72.217l4.03-1.117v4.5h4.764v3h-4.764v6.913a1.793,1.793,0,0,0,2.029,2.029,3.39,3.39,0,0,0,2.266-.825Z" transform="translate(-1935.374 -69.159)"/>
    <path id="Tracé_38" data-name="Tracé 38" class="cls-1" d="M2517.811,225.522l-.5,3.53a3.362,3.362,0,0,0-1.854-.442,3.4,3.4,0,0,0-2.485,1.043,3.951,3.951,0,0,0-1.043,2.927V240.2h-4.03V225.492h3.5l.265,2.883a4.5,4.5,0,0,1,4.56-3.175A3.208,3.208,0,0,1,2517.811,225.522Z" transform="translate(-2439.425 -219.051)"/>
    <path id="Tracé_39" data-name="Tracé 39" class="cls-1" d="M2934.656,237.542l-.295,2.441a4.246,4.246,0,0,1-1.911.412q-2.822,0-3.383-2.206a4,4,0,0,1-2,1.646,8.391,8.391,0,0,1-3.205.56,5.211,5.211,0,0,1-3.353-.969,3.381,3.381,0,0,1-1.207-2.793q0-3.588,5.737-4.647l3.53-.677v-.7a2.6,2.6,0,0,0-.661-1.868,2.419,2.419,0,0,0-1.838-.691,3.82,3.82,0,0,0-2.206.587,3.109,3.109,0,0,0-1.177,1.911l-3.205-1.354a4.87,4.87,0,0,1,2.119-3,7.652,7.652,0,0,1,4.295-1.089,7.847,7.847,0,0,1,4.912,1.368,4.8,4.8,0,0,1,1.764,4.044v6.029a1.158,1.158,0,0,0,.265.852,1.133,1.133,0,0,0,.824.265A3.273,3.273,0,0,0,2934.656,237.542Zm-7.162-.513a1.926,1.926,0,0,0,1.073-1.72V233.78l-3.148.7a3.713,3.713,0,0,0-1.485.633,1.352,1.352,0,0,0-.486,1.1,1.314,1.314,0,0,0,.442,1.073,1.869,1.869,0,0,0,1.234.369A4.59,4.59,0,0,0,2927.494,237.029Z" transform="translate(-2839.593 -218.954)"/>
    <path id="Tracé_40" data-name="Tracé 40" class="cls-1" d="M3573.127,16.472a2.574,2.574,0,0,0,.309,1.472,1.334,1.334,0,0,0,1.133.412,4.481,4.481,0,0,0,.868-.074,6.185,6.185,0,0,0,.868-.251l-.355,2.793a3.87,3.87,0,0,1-1.234.456,7.332,7.332,0,0,1-1.5.161,4.129,4.129,0,0,1-3.132-1.043,4.757,4.757,0,0,1-.986-3.339V0h4.03V16.472Z" transform="translate(-3471.651)"/>
    <path id="Tracé_41" data-name="Tracé 41" class="cls-1" d="M3897.5,2.176Q3897.5,0,3900,0t2.5,2.176q0,2.146-2.5,2.146C3898.333,4.322,3897.5,3.61,3897.5,2.176Zm4.5,18.973h-4.03V6.441H3902Z" transform="translate(-3791.084 0)"/>
    <path id="Tracé_42" data-name="Tracé 42" class="cls-1" d="M4177.6,237.67l2.354-2.411a3.5,3.5,0,0,0,1.69,1.78,6.409,6.409,0,0,0,2.722.513,4.569,4.569,0,0,0,2-.352,1.08,1.08,0,0,0,.707-.972c0-.333-.221-.617-.661-.852a9.147,9.147,0,0,0-2.28-.677,11.4,11.4,0,0,1-4.75-1.78,3.631,3.631,0,0,1-1.368-2.984,3.968,3.968,0,0,1,.764-2.324,5.289,5.289,0,0,1,2.267-1.75,8.835,8.835,0,0,1,3.588-.661,9.125,9.125,0,0,1,4,.751,6.334,6.334,0,0,1,2.559,2.367l-2.5,2.119a4.417,4.417,0,0,0-1.6-1.737,4.7,4.7,0,0,0-2.4-.56,3.862,3.862,0,0,0-1.927.412,1.078,1.078,0,0,0-.017,2.029,8.772,8.772,0,0,0,2.5.764,11.278,11.278,0,0,1,4.544,1.693,3.468,3.468,0,0,1,1.337,2.9,3.881,3.881,0,0,1-1.75,3.309,8.431,8.431,0,0,1-4.955,1.251Q4179.514,240.491,4177.6,237.67Z" transform="translate(-4063.536 -219.051)"/>
  </g>
  <g id="Groupe_214" data-name="Groupe 214" transform="translate(131.229 0.019)">
    <path id="Tracé_43" data-name="Tracé 43" class="cls-1" d="M4811.759,1.14a3.08,3.08,0,0,1,1.256,1.245,3.805,3.805,0,0,1,.445,1.873,3.8,3.8,0,0,1-.445,1.873,3.08,3.08,0,0,1-1.256,1.245,4.234,4.234,0,0,1-3.757,0,3.083,3.083,0,0,1-1.256-1.251,3.811,3.811,0,0,1-.445-1.868,3.811,3.811,0,0,1,.445-1.868A3.083,3.083,0,0,1,4808,1.14a4.234,4.234,0,0,1,3.757,0ZM4811.51,7a2.727,2.727,0,0,0,1.089-1.1,3.371,3.371,0,0,0,.388-1.644,3.378,3.378,0,0,0-.388-1.644,2.727,2.727,0,0,0-1.089-1.1,3.631,3.631,0,0,0-3.265,0,2.682,2.682,0,0,0-1.084,1.1,3.435,3.435,0,0,0-.382,1.644,3.435,3.435,0,0,0,.382,1.644,2.682,2.682,0,0,0,1.084,1.1,3.631,3.631,0,0,0,3.265,0Zm-.24-2.758a1.244,1.244,0,0,1-.731.371l1.067,1.6h-.513l-1.027-1.57h-1.046v1.57h-.45V2.344h1.6a1.508,1.508,0,0,1,1,.3,1.05,1.05,0,0,1,.36.849A1.07,1.07,0,0,1,4811.27,4.244Zm-2.25.057h1.152c.614-.014.92-.284.92-.805s-.306-.795-.92-.795h-1.152Z" transform="translate(-4806.301 -0.7)"/>
  </g>
</svg>
