<svg xmlns="http://www.w3.org/2000/svg" viewBox="0 0 54.688 62.5">
  <defs>
    <style>
      .cls-1 {
        fill: #17d5c8;
      }
    </style>
  </defs>
  <g id="picto_user" transform="translate(-27.155 -28.25)">
    <path id="Tracé_67" data-name="Tracé 67" class="cls-1" d="M54.5,26.25A14.171,14.171,0,1,1,40.329,40.421,14.172,14.172,0,0,1,54.5,26.25m0,32.156A24.348,24.348,0,0,1,78.846,82.751H30.155A24.347,24.347,0,0,1,54.5,58.406m0-35.156a17.171,17.171,0,0,0-6.693,32.984A27.394,27.394,0,0,0,27.155,82.75a3,3,0,0,0,3,3H78.844a3,3,0,0,0,3-3A27.394,27.394,0,0,0,61.192,56.234,17.171,17.171,0,0,0,54.5,23.25Z" transform="translate(0 5)"/>
  </g>
</svg>
