<?xml version="1.0" encoding="utf-8"?>
<!-- Generator: Adobe Illustrator 21.1.0, SVG Export Plug-In . SVG Version: 6.00 Build 0)  -->
<svg version="1.1" id="Calque_1" xmlns="http://www.w3.org/2000/svg" xmlns:xlink="http://www.w3.org/1999/xlink" x="0px" y="0px"
	 viewBox="0 0 1417.3 1417.3" style="enable-background:new 0 0 1417.3 1417.3;" xml:space="preserve">
<style type="text/css">
	.st0{opacity:0;fill:#FFFFFF;}
	.st1{fill:#CCCCCC;}
</style>
<rect id="Safety_Area_2_" x="228.2" y="228.2" class="st0" width="961.6" height="961.6"/>
<g id="W_Mark_2_">
	<path class="st1" d="M709,144.1c76.3,0,150.3,14.9,219.9,44.4c33.5,14.2,65.7,31.7,95.9,52.1c29.9,20.2,58.1,43.4,83.6,69
		c25.6,25.6,48.8,53.7,69,83.6c20.4,30.2,37.9,62.5,52.1,95.9c29.4,69.6,44.4,143.6,44.4,219.9s-14.9,150.3-44.4,219.9
		c-14.2,33.5-31.7,65.7-52.1,95.9c-20.2,29.9-43.4,58.1-69,83.6c-25.6,25.6-53.7,48.8-83.6,69c-30.2,20.4-62.5,37.9-95.9,52.1
		c-69.6,29.4-143.6,44.4-219.9,44.4c-76.3,0-150.3-14.9-219.9-44.4c-33.5-14.2-65.7-31.7-95.9-52.1c-29.9-20.2-58.1-43.4-83.6-69
		c-25.6-25.6-48.8-53.7-69-83.6c-20.4-30.2-37.9-62.5-52.1-95.9C159,859.3,144.1,785.3,144.1,709s14.9-150.3,44.4-219.9
		c14.2-33.5,31.7-65.7,52.1-95.9c20.2-29.9,43.4-58.1,69-83.6c25.6-25.6,53.7-48.8,83.6-69c30.2-20.4,62.5-37.9,95.9-52.1
		C558.7,159,632.7,144.1,709,144.1 M709,108c-331.9,0-601,269.1-601,601c0,331.9,269.1,601,601,601c331.9,0,601-269.1,601-601
		C1310,377.1,1040.9,108,709,108L709,108z"/>
	<path class="st1" d="M208.2,709c0,198.2,115.2,369.6,282.3,450.7L251.5,505.2C223.7,567.4,208.2,636.4,208.2,709z M1047.1,683.7
		c0-61.9-22.2-104.8-41.3-138.1c-25.4-41.3-49.2-76.2-49.2-117.5c0-46,34.9-88.9,84.1-88.9c2.2,0,4.3,0.3,6.5,0.4
		C958.1,258,839.4,208.2,709,208.2c-175,0-328.9,89.8-418.5,225.7c11.8,0.4,22.8,0.6,32.2,0.6c52.4,0,133.5-6.4,133.5-6.4
		c27-1.6,30.2,38.1,3.2,41.3c0,0-27.1,3.2-57.3,4.8l182.4,542.5L694.1,688l-78-213.8c-27-1.6-52.5-4.8-52.5-4.8
		c-27-1.6-23.8-42.9,3.2-41.3c0,0,82.7,6.4,131.9,6.4c52.4,0,133.5-6.4,133.5-6.4c27-1.6,30.2,38.1,3.2,41.3c0,0-27.2,3.2-57.3,4.8
		l181,538.4l51.7-163.7C1033.6,777.3,1047.1,726.6,1047.1,683.7z M717.8,752.8l-150.3,436.6c44.9,13.2,92.3,20.4,141.5,20.4
		c58.3,0,114.3-10.1,166.3-28.4c-1.3-2.1-2.6-4.4-3.6-6.9L717.8,752.8z M1148.5,468.7c2.2,15.9,3.4,33.1,3.4,51.5
		c0,50.8-9.5,107.9-38.1,179.4l-153,442.3c148.9-86.8,249-248.1,249-432.9C1209.8,621.9,1187.6,540,1148.5,468.7z"/>
</g>
</svg>
